<svg id="Capa_1" data-name="Capa 1" xmlns="http://www.w3.org/2000/svg" viewBox="0 0 498.89 496"><defs><style>.cls-1{fill:#6bcbb8;}</style></defs><title>network</title><circle class="cls-1" cx="249.45" cy="248" r="184"/><path d="M326.32,290.42l-44.87-9V280h-1.09a64.19,64.19,0,0,0,31.14-40.61A32,32,0,0,0,337.45,208V153a50.17,50.17,0,0,0-35.09-47.9A61.76,61.76,0,0,0,252.61,80a91.26,91.26,0,0,0-91.16,91.16V208a32,32,0,0,0,26,31.39A64.14,64.14,0,0,0,218.54,280h-1.09v1.44l-44.87,9a55.76,55.76,0,0,0-42.86,39.52L118.84,368H380.06l-10.88-38.06A55.77,55.77,0,0,0,326.32,290.42Zm-12.87-68.64V194.23a15.86,15.86,0,0,1,0,27.55ZM252.61,96a45.78,45.78,0,0,1,38.18,20.44L292.5,119l3,.75A34.2,34.2,0,0,1,321.45,153v27.47a31.71,31.71,0,0,0-16-4.45,88.58,88.58,0,0,1-52.81-17.6l-11.94-9-11.94,11.94A49.62,49.62,0,0,1,193.45,176a31.69,31.69,0,0,0-16,4.45v-9.3A75.25,75.25,0,0,1,252.61,96ZM177.45,208a16,16,0,0,1,8-13.78v27.55A15.93,15.93,0,0,1,177.45,208Zm24,16V191.46a65.36,65.36,0,0,0,38.62-18.77l2.13-2.13.84.63a104.74,104.74,0,0,0,54.41,20.48V224a48,48,0,0,1-96,0Zm63.92,61.91-15.92,26.55-15.92-26.54a61.82,61.82,0,0,0,31.84,0ZM319.69,352l-6.49-25.94-15.51,3.88L303.21,352H195.69l5.51-22.06-15.51-3.88L179.21,352H140.06l5-17.66a39.87,39.87,0,0,1,30.61-28.24L221.49,297l28,46.59,28-46.59,45.77,9.15a39.85,39.85,0,0,1,30.61,28.24l5,17.66Z"/><rect x="417.45" y="240" width="16" height="16"/><rect x="385.45" y="240" width="16" height="16"/><rect x="353.45" y="240" width="16" height="16"/><rect x="129.45" y="240" width="16" height="16"/><rect x="97.45" y="240" width="16" height="16"/><rect x="65.45" y="240" width="16" height="16"/><path d="M479.23,429.34,457.17,416.1a39.61,39.61,0,0,0,8.28-24.1V376A39.91,39.91,0,0,0,444.33,341,215.48,215.48,0,0,0,446.7,160h52.19l-8.35-50a23.9,23.9,0,0,0-11.32-16.64L457.16,80.1A39.56,39.56,0,0,0,465.45,56V40a40,40,0,0,0-80,0V56a39.56,39.56,0,0,0,8.29,24.1L388.84,83a215.87,215.87,0,0,0-278.78,0l-4.89-2.94A39.61,39.61,0,0,0,113.45,56V40a40,40,0,0,0-80,0V56a39.56,39.56,0,0,0,8.29,24.1L19.67,93.34A23.9,23.9,0,0,0,8.35,110L0,160H52.19a215.53,215.53,0,0,0,2.38,181A39.89,39.89,0,0,0,33.45,376v16a39.56,39.56,0,0,0,8.29,24.1L19.67,429.34A23.9,23.9,0,0,0,8.35,446L0,496H146.89l-8.35-50a23.9,23.9,0,0,0-11.32-16.64L105.16,416.1a40.68,40.68,0,0,0,3.07-4.76,215.69,215.69,0,0,0,282.43,0,38.13,38.13,0,0,0,3.07,4.75l-22.07,13.24A24,24,0,0,0,360.34,446L352,496H498.89l-8.35-50A23.86,23.86,0,0,0,479.23,429.34ZM449.45,392a24,24,0,0,1-48,0V376a24,24,0,0,1,48,0Zm25.32-279.4L480,144H370.9l5.23-31.41a7.94,7.94,0,0,1,3.77-5.53l26.68-16a38.44,38.44,0,0,0,37.74,0l26.68,16A8,8,0,0,1,474.77,112.6ZM401.45,40a24,24,0,0,1,48,0V56a24,24,0,0,1-48,0Zm-352,0a24,24,0,0,1,48,0V56a24,24,0,0,1-48,0ZM24.13,112.59a7.94,7.94,0,0,1,3.77-5.53l26.68-16a38.44,38.44,0,0,0,37.74,0l26.68,16a8,8,0,0,1,3.78,5.54L128,144H18.9ZM49.45,376a24,24,0,0,1,48,0v16a24,24,0,0,1-48,0Zm73.32,72.6L128,480H18.9l5.23-31.41a7.94,7.94,0,0,1,3.77-5.53l26.68-16a38.44,38.44,0,0,0,37.74,0l26.68,16A8,8,0,0,1,122.77,448.6Zm126.68-.6a198.86,198.86,0,0,1-136.23-53.72c0-.77.23-1.5.23-2.28V376a40,40,0,0,0-40-40c-1.15,0-2.22.24-3.34.34A200.5,200.5,0,0,1,49.45,248,197.58,197.58,0,0,1,70,160h77l-8.35-50a23.9,23.9,0,0,0-11.32-16.64l-2.46-1.48a199.16,199.16,0,0,1,249.37,0l-2.47,1.48A23.9,23.9,0,0,0,360.35,110L352,160h76.94a197.45,197.45,0,0,1,20.51,88,200.51,200.51,0,0,1-20.67,88.34c-1.12-.1-2.19-.34-3.33-.34a40,40,0,0,0-40,40v16c0,.78.18,1.51.23,2.28A198.9,198.9,0,0,1,249.45,448ZM370.9,480l5.23-31.41a7.94,7.94,0,0,1,3.77-5.53l26.68-16a38.44,38.44,0,0,0,37.74,0l26.68,16a8,8,0,0,1,3.78,5.54L480,480Z"/></svg>