<svg id="Capa_1" data-name="Capa 1" xmlns="http://www.w3.org/2000/svg" viewBox="0 0 496 496"><defs><style>.cls-3{fill:#3f3a34}</style></defs><path fill="#6bcbb8" d="M80 144h272v192H80z"/><path d="M400 144h64v16h-64zm-32 0h16v16h-16zm0 32h96v16h-96zm0 32h96v16h-96zm0 32h96v16h-96zm0 32h64v16h-64zm80 0h16v16h-16zm-40 32h16v16h-16zm32 0h16v16h-16zm-64 0h16v16h-16z" fill="#3d7cc9"/><path class="cls-3" d="M280 384h16v15.99h-16zM16 64h264v32h16V40a40 40 0 0 0-40-40H40A40 40 0 0 0 0 40v360h16zm24-48h216a24 24 0 0 1 24 24v8H16v-8a24 24 0 0 1 24-24zM0 456a40 40 0 0 0 40 40h216a40 40 0 0 0 40-40v-40H0zm16-24h264v24a24 24 0 0 1-24 24H40a24 24 0 0 1-24-24z"/><path class="cls-3" d="M120 448h56v16h-56zM48 112v256h448V112zm432 240H64V128h416z"/><path class="cls-3" d="M208 288v-56a40 40 0 0 0-80 0v56h16v-32h48v32zm-64-48v-8a24 24 0 0 1 48 0v8zm80-48v96h32a48 48 0 0 0 0-96zm64 48a32 32 0 0 1-32 32h-16v-64h16a32 32 0 0 1 32 32z"/><path class="cls-3" d="M96 160h256v-16H80v160h16V160zm256 16h-16v144H80v16h272V176z"/></svg>