<svg data-name="Capa 1" xmlns="http://www.w3.org/2000/svg" viewBox="0 0 498.89 496"><circle cx="249.45" cy="248" r="184" fill="#6bcbb8"/><path d="M326.32 290.42l-44.87-9V280h-1.09a64.19 64.19 0 0 0 31.14-40.61A32 32 0 0 0 337.45 208v-55a50.17 50.17 0 0 0-35.09-47.9A61.76 61.76 0 0 0 252.61 80a91.26 91.26 0 0 0-91.16 91.16V208a32 32 0 0 0 26 31.39A64.14 64.14 0 0 0 218.54 280h-1.09v1.44l-44.87 9a55.76 55.76 0 0 0-42.86 39.52L118.84 368h261.22l-10.88-38.06a55.77 55.77 0 0 0-42.86-39.52zm-12.87-68.64v-27.55a15.86 15.86 0 0 1 0 27.55zM252.61 96a45.78 45.78 0 0 1 38.18 20.44l1.71 2.56 3 .75A34.2 34.2 0 0 1 321.45 153v27.47a31.71 31.71 0 0 0-16-4.45 88.58 88.58 0 0 1-52.81-17.6l-11.94-9-11.94 11.94A49.62 49.62 0 0 1 193.45 176a31.69 31.69 0 0 0-16 4.45v-9.3A75.25 75.25 0 0 1 252.61 96zm-75.16 112a16 16 0 0 1 8-13.78v27.55a15.93 15.93 0 0 1-8-13.77zm24 16v-32.54a65.36 65.36 0 0 0 38.62-18.77l2.13-2.13.84.63a104.74 104.74 0 0 0 54.41 20.48V224a48 48 0 0 1-96 0zm63.92 61.91l-15.92 26.55-15.92-26.54a61.82 61.82 0 0 0 31.84 0zM319.69 352l-6.49-25.94-15.51 3.88 5.52 22.06H195.69l5.51-22.06-15.51-3.88-6.48 25.94h-39.15l5-17.66a39.87 39.87 0 0 1 30.61-28.24l45.82-9.1 28 46.59 28-46.59 45.77 9.15a39.85 39.85 0 0 1 30.61 28.24l5 17.66zm97.76-112h16v16h-16zm-32 0h16v16h-16z"/><path d="M353.45 240h16v16h-16zm-224 0h16v16h-16zm-32 0h16v16h-16zm-32 0h16v16h-16z"/><path d="M479.23 429.34l-22.06-13.24a39.61 39.61 0 0 0 8.28-24.1v-16a39.91 39.91 0 0 0-21.12-35 215.48 215.48 0 0 0 2.37-181h52.19l-8.35-50a23.9 23.9 0 0 0-11.32-16.64L457.16 80.1a39.56 39.56 0 0 0 8.29-24.1V40a40 40 0 0 0-80 0v16a39.56 39.56 0 0 0 8.29 24.1l-4.9 2.9a215.87 215.87 0 0 0-278.78 0l-4.89-2.94A39.61 39.61 0 0 0 113.45 56V40a40 40 0 0 0-80 0v16a39.56 39.56 0 0 0 8.29 24.1L19.67 93.34A23.9 23.9 0 0 0 8.35 110L0 160h52.19a215.53 215.53 0 0 0 2.38 181 39.89 39.89 0 0 0-21.12 35v16a39.56 39.56 0 0 0 8.29 24.1l-22.07 13.24A23.9 23.9 0 0 0 8.35 446L0 496h146.89l-8.35-50a23.9 23.9 0 0 0-11.32-16.64l-22.06-13.26a40.68 40.68 0 0 0 3.07-4.76 215.69 215.69 0 0 0 282.43 0 38.13 38.13 0 0 0 3.07 4.75l-22.07 13.24A24 24 0 0 0 360.34 446L352 496h146.89l-8.35-50a23.86 23.86 0 0 0-11.31-16.66zM449.45 392a24 24 0 0 1-48 0v-16a24 24 0 0 1 48 0zm25.32-279.4L480 144H370.9l5.23-31.41a7.94 7.94 0 0 1 3.77-5.53l26.68-16a38.44 38.44 0 0 0 37.74 0l26.68 16a8 8 0 0 1 3.77 5.54zM401.45 40a24 24 0 0 1 48 0v16a24 24 0 0 1-48 0zm-352 0a24 24 0 0 1 48 0v16a24 24 0 0 1-48 0zm-25.32 72.59a7.94 7.94 0 0 1 3.77-5.53l26.68-16a38.44 38.44 0 0 0 37.74 0l26.68 16a8 8 0 0 1 3.78 5.54L128 144H18.9zM49.45 376a24 24 0 0 1 48 0v16a24 24 0 0 1-48 0zm73.32 72.6L128 480H18.9l5.23-31.41a7.94 7.94 0 0 1 3.77-5.53l26.68-16a38.44 38.44 0 0 0 37.74 0l26.68 16a8 8 0 0 1 3.77 5.54zm126.68-.6a198.86 198.86 0 0 1-136.23-53.72c0-.77.23-1.5.23-2.28v-16a40 40 0 0 0-40-40c-1.15 0-2.22.24-3.34.34A200.5 200.5 0 0 1 49.45 248 197.58 197.58 0 0 1 70 160h77l-8.35-50a23.9 23.9 0 0 0-11.32-16.64l-2.46-1.48a199.16 199.16 0 0 1 249.37 0l-2.47 1.48A23.9 23.9 0 0 0 360.35 110L352 160h76.94a197.45 197.45 0 0 1 20.51 88 200.51 200.51 0 0 1-20.67 88.34c-1.12-.1-2.19-.34-3.33-.34a40 40 0 0 0-40 40v16c0 .78.18 1.51.23 2.28A198.9 198.9 0 0 1 249.45 448zm121.45 32l5.23-31.41a7.94 7.94 0 0 1 3.77-5.53l26.68-16a38.44 38.44 0 0 0 37.74 0l26.68 16a8 8 0 0 1 3.78 5.54L480 480z"/></svg>