<svg id="arrows_up" data-name="arrows up" xmlns="http://www.w3.org/2000/svg" viewBox="0 0 1920 1080"><defs><style>.cls-1,.cls-2,.cls-3,.cls-4,.cls-5,.cls-7{fill:none;stroke-linecap:round;stroke-linejoin:round}.cls-1{stroke:#fff}.cls-2,.cls-5{stroke:#385cad}.cls-3{stroke:#6bcbb8}.cls-4{stroke:#3d7cc9}.cls-5{stroke-width:2px}.cls-7{stroke:#cdde00}</style></defs><path class="cls-1" d="M-50.83 862.64h97.8l-48.9-107.58-48.9 107.58z"/><path class="cls-1" d="M46.97 862.64h97.8l-48.9-107.58-48.9 107.58z"/><path class="cls-2" d="M144.77 862.64h97.8l-48.9-107.58-48.9 107.58zm97.8 0h97.8l-48.9-107.58-48.9 107.58zm97.8 0h97.8l-48.9-107.58-48.9 107.58zm97.8 0h97.8l-48.91-107.58-48.89 107.58zm97.8 0h97.79l-48.9-107.58-48.89 107.58z"/><path class="cls-3" d="M633.76 862.64h97.8l-48.9-107.58-48.9 107.58zm97.8 0h97.8l-48.9-107.58-48.9 107.58z"/><path class="cls-1" d="M829.36 862.64h97.8l-48.9-107.58-48.9 107.58zm97.8 0h97.8l-48.9-107.58-48.9 107.58z"/><path class="cls-2" d="M1024.96 862.64h97.8l-48.9-107.58-48.9 107.58z"/><path class="cls-4" d="M1122.76 862.64h97.8l-48.9-107.58-48.9 107.58z"/><path class="cls-2" d="M1220.56 862.64h97.8l-48.9-107.58-48.9 107.58z"/><path class="cls-2" d="M1318.36 862.64h97.79l-48.89-107.58-48.9 107.58zm97.79 0h97.8l-48.9-107.58-48.9 107.58zm97.8 0h97.8l-48.9-107.58-48.9 107.58z"/><path class="cls-1" d="M-1.98 755.06h97.8l-48.9-107.58-48.9 107.58z"/><path class="cls-2" d="M95.82 755.06h97.8l-48.9-107.58-48.9 107.58zm97.8 0h97.8l-48.9-107.58-48.9 107.58zm97.8 0h97.8l-48.9-107.58-48.9 107.58zm97.8 0h97.8l-48.9-107.58-48.9 107.58z"/><path class="cls-5" d="M487.02 755.06h97.8l-48.9-107.58-48.9 107.58z"/><path class="cls-2" d="M584.82 755.06h97.8l-48.9-107.58-48.9 107.58z"/><path class="cls-3" d="M682.62 755.06h97.79l-48.9-107.58-48.89 107.58z"/><path class="cls-1" d="M780.41 755.06h97.8l-48.9-107.58-48.9 107.58zm97.8 0h97.8l-48.9-107.58-48.9 107.58z"/><path class="cls-2" d="M976.01 755.06h97.8l-48.9-107.58-48.9 107.58z"/><path class="cls-2" d="M1073.81 755.06h97.8l-48.9-107.58-48.9 107.58z"/><path class="cls-2" d="M1171.61 755.06h97.8l-48.9-107.58-48.9 107.58zm97.8 0h97.8l-48.9-107.58-48.9 107.58zm97.8 0h97.8l-48.9-107.58-48.9 107.58zm97.8 0h97.8l-48.91-107.58-48.89 107.58z"/><path class="cls-1" d="M1562.81 755.06h97.79l-48.9-107.58-48.89 107.58zM-50.83 647.48h97.8L-1.93 539.9l-48.9 107.58z"/><path class="cls-4" d="M46.97 647.48h97.8L95.87 539.9l-48.9 107.58z"/><path class="cls-2" d="M242.57 647.48h97.8l-48.9-107.58-48.9 107.58zm97.8 0h97.8l-48.9-107.58-48.9 107.58zm97.8 0h97.8L487.06 539.9l-48.89 107.58zm97.8 0h97.79l-48.9-107.58-48.89 107.58zm97.79 0h97.8l-48.9-107.58-48.9 107.58z"/><path class="cls-1" d="M731.56 647.48h97.8l-48.9-107.58-48.9 107.58z"/><path class="cls-3" d="M829.36 647.48h97.8l-48.9-107.58-48.9 107.58z"/><path class="cls-2" d="M927.16 647.48h97.8l-48.9-107.58-48.9 107.58z"/><path class="cls-2" d="M1024.96 647.48h97.8l-48.9-107.58-48.9 107.58z"/><path class="cls-2" d="M1122.76 647.48h97.8l-48.9-107.58-48.9 107.58z"/><path class="cls-2" d="M1220.56 647.48h97.8l-48.9-107.58-48.9 107.58z"/><path class="cls-5" d="M1318.36 647.48h97.79l-48.89-107.58-48.9 107.58z"/><path class="cls-2" d="M1416.15 647.48h97.8l-48.9-107.58-48.9 107.58z"/><path class="cls-2" d="M1513.95 647.48h97.8l-48.9-107.58-48.9 107.58z"/><path class="cls-3" d="M144.77 647.48h97.8l-48.9-107.58-48.9 107.58z"/><path class="cls-2" d="M-1.98 539.9h97.8l-48.9-107.58-48.9 107.58z"/><path class="cls-4" d="M193.62 539.9h97.8l-48.9-107.58-48.9 107.58z"/><path class="cls-2" d="M291.42 539.9h97.8l-48.9-107.58-48.9 107.58zm97.8 0h97.8l-48.9-107.58-48.9 107.58z"/><path class="cls-2" d="M487.02 539.9h97.8l-48.9-107.58-48.9 107.58zm97.8 0h97.8l-48.9-107.58-48.9 107.58zm97.8 0h97.79l-48.9-107.58-48.89 107.58z"/><path class="cls-1" d="M780.41 539.9h97.8l-48.9-107.58-48.9 107.58z"/><path class="cls-2" d="M878.21 539.9h97.8l-48.9-107.58-48.9 107.58z"/><path class="cls-2" d="M976.01 539.9h97.8l-48.9-107.58-48.9 107.58z"/><path class="cls-2" d="M1073.81 539.9h97.8l-48.9-107.58-48.9 107.58z"/><path class="cls-4" d="M1171.61 539.9h97.8l-48.9-107.58-48.9 107.58z"/><path class="cls-5" d="M1269.41 539.9h97.8l-48.9-107.58-48.9 107.58z"/><path class="cls-2" d="M1367.21 539.9h97.8l-48.9-107.58-48.9 107.58z"/><path class="cls-2" d="M1465.01 539.9h97.8l-48.91-107.58-48.89 107.58z"/><path class="cls-5" d="M1562.81 539.9h97.79l-48.9-107.58-48.89 107.58z"/><path class="cls-3" d="M95.82 539.9h97.8l-48.9-107.58-48.9 107.58z"/><path class="cls-2" d="M-50.83 432.32h97.8l-48.9-107.58-48.9 107.58z"/><path class="cls-2" d="M46.97 432.32h97.8l-48.9-107.58-48.9 107.58zm97.8 0h97.8l-48.9-107.58-48.9 107.58zm97.8 0h97.8l-48.9-107.58-48.9 107.58zm97.8 0h97.8l-48.9-107.58-48.9 107.58zm97.8 0h97.8l-48.91-107.58-48.89 107.58zm97.8 0h97.79l-48.9-107.58-48.89 107.58zm97.79 0h97.8l-48.9-107.58-48.9 107.58zm97.8 0h97.8l-48.9-107.58-48.9 107.58zm97.8 0h97.8l-48.9-107.58-48.9 107.58zm97.8 0h97.8l-48.9-107.58-48.9 107.58zm97.8 0h97.8l-48.9-107.58-48.9 107.58zm97.8 0h97.8l-48.9-107.58-48.9 107.58zm97.8 0h97.8l-48.9-107.58-48.9 107.58zm97.8 0h97.79l-48.89-107.58-48.9 107.58zm97.79 0h97.8l-48.9-107.58-48.9 107.58zm97.8 0h97.8l-48.9-107.58-48.9 107.58zM-1.98 324.74h97.8l-48.9-107.58-48.9 107.58zm97.8 0h97.8l-48.9-107.58-48.9 107.58zm97.8 0h97.8l-48.9-107.58-48.9 107.58zm97.8 0h97.8l-48.9-107.58-48.9 107.58z"/><path class="cls-4" d="M389.22 324.74h97.8l-48.9-107.58-48.9 107.58z"/><path class="cls-2" d="M487.02 324.74h97.8l-48.9-107.58-48.9 107.58zm97.8 0h97.8l-48.9-107.58-48.9 107.58zm97.8 0h97.79l-48.9-107.58-48.89 107.58zm97.79 0h97.8l-48.9-107.58-48.9 107.58zm97.8 0h97.8l-48.9-107.58-48.9 107.58zm97.8 0h97.8l-48.9-107.58-48.9 107.58zm97.8 0h97.8l-48.9-107.58-48.9 107.58zm97.8 0h97.8l-48.9-107.58-48.9 107.58zm97.8 0h97.8l-48.9-107.58-48.9 107.58zm97.8 0h97.8l-48.9-107.58-48.9 107.58z"/><path class="cls-3" d="M1465.01 324.74h97.8l-48.91-107.58-48.89 107.58z"/><path class="cls-3" d="M1562.81 324.74h97.79l-48.9-107.58-48.89 107.58z"/><path class="cls-2" d="M-50.83 217.16h97.8l-48.9-107.58-48.9 107.58z"/><path class="cls-1" d="M46.97 217.16h97.8l-48.9-107.58-48.9 107.58z"/><path class="cls-4" d="M144.77 217.16h97.8l-48.9-107.58-48.9 107.58z"/><path class="cls-2" d="M242.57 217.16h97.8l-48.9-107.58-48.9 107.58z"/><path class="cls-5" d="M340.37 217.16h97.8l-48.9-107.58-48.9 107.58z"/><path class="cls-2" d="M438.17 217.16h97.8l-48.91-107.58-48.89 107.58zm97.8 0h97.79l-48.9-107.58-48.89 107.58zm97.79 0h97.8l-48.9-107.58-48.9 107.58zm97.8 0h97.8l-48.9-107.58-48.9 107.58z"/><path stroke-width="2" stroke="#6bcbb8" fill="none" stroke-linecap="round" stroke-linejoin="round" d="M829.36 217.16h97.8l-48.9-107.58-48.9 107.58z"/><path class="cls-2" d="M927.16 217.16h97.8l-48.9-107.58-48.9 107.58z"/><path class="cls-2" d="M1024.96 217.16h97.8l-48.9-107.58-48.9 107.58z"/><path class="cls-2" d="M1122.76 217.16h97.8l-48.9-107.58-48.9 107.58z"/><path class="cls-4" d="M1220.56 217.16h97.8l-48.9-107.58-48.9 107.58z"/><path class="cls-7" d="M1318.36 217.16h97.79l-48.89-107.58-48.9 107.58z"/><path class="cls-2" d="M1416.15 217.16h97.8l-48.9-107.58-48.9 107.58z"/><path class="cls-3" d="M1513.95 217.16h97.8l-48.9-107.58-48.9 107.58z"/><path class="cls-2" d="M-1.98 109.58h97.8L46.92 2l-48.9 107.58zm97.8 0h97.8L144.72 2l-48.9 107.58zm97.8 0h97.8L242.52 2l-48.9 107.58z"/><path class="cls-1" d="M291.42 109.58h97.8L340.32 2l-48.9 107.58z"/><path class="cls-5" d="M389.22 109.58h97.8L438.12 2l-48.9 107.58z"/><path class="cls-1" d="M487.02 109.58h97.8L535.92 2l-48.9 107.58z"/><path class="cls-2" d="M584.82 109.58h97.8L633.72 2l-48.9 107.58zm97.8 0h97.79L731.51 2l-48.89 107.58zm97.79 0h97.8L829.31 2l-48.9 107.58zm97.8 0h97.8L927.11 2l-48.9 107.58z"/><path class="cls-1" d="M976.01 109.58h97.8L1024.91 2l-48.9 107.58z"/><path class="cls-2" d="M1073.81 109.58h97.8L1122.71 2l-48.9 107.58zm97.8 0h97.8L1220.51 2l-48.9 107.58zm97.8 0h97.8L1318.31 2l-48.9 107.58zm97.8 0h97.8L1416.11 2l-48.9 107.58zm97.8 0h97.8L1513.9 2l-48.89 107.58z"/><path class="cls-3" d="M1562.81 109.58h97.79L1611.7 2l-48.89 107.58z"/><path class="cls-2" d="M1709.5 2H-50.88"/><path class="cls-4" d="M1611.75 862.64h97.8l-48.9-107.58-48.9 107.58z"/><path class="cls-2" d="M1709.55 862.64h97.8l-48.9-107.58-48.9 107.58z"/><path class="cls-2" d="M1807.35 862.64h97.8l-48.9-107.58-48.9 107.58zm97.8 0h97.8l-48.9-107.58-48.9 107.58z"/><path class="cls-1" d="M1660.6 755.06h97.8l-48.9-107.58-48.9 107.58z"/><path class="cls-2" d="M1758.4 755.06h97.8l-48.9-107.58-48.9 107.58z"/><path class="cls-2" d="M1856.2 755.06h97.8l-48.9-107.58-48.9 107.58z"/><path class="cls-1" d="M1611.75 647.48h97.8l-48.9-107.58-48.9 107.58z"/><path class="cls-2" d="M1709.55 647.48h97.8l-48.9-107.58-48.9 107.58z"/><path class="cls-2" d="M1807.35 647.48h97.8l-48.9-107.58-48.9 107.58zm97.8 0h97.8l-48.9-107.58-48.9 107.58zM1660.6 539.9h97.8l-48.9-107.58-48.9 107.58zm97.8 0h97.8l-48.9-107.58-48.9 107.58zm97.8 0h97.8l-48.9-107.58-48.9 107.58zm-244.45-107.58h97.8l-48.9-107.58-48.9 107.58zm97.8 0h97.8l-48.9-107.58-48.9 107.58zm97.8 0h97.8l-48.9-107.58-48.9 107.58zm97.8 0h97.8l-48.9-107.58-48.9 107.58z"/><path class="cls-3" d="M1660.6 324.74h97.8l-48.9-107.58-48.9 107.58z"/><path class="cls-2" d="M1758.4 324.74h97.8l-48.9-107.58-48.9 107.58z"/><path class="cls-2" d="M1856.2 324.74h97.8l-48.9-107.58-48.9 107.58z"/><path class="cls-3" d="M1611.75 217.16h97.8l-48.9-107.58-48.9 107.58z"/><path class="cls-3" d="M1709.55 217.16h97.8l-48.9-107.58-48.9 107.58z"/><path class="cls-2" d="M1807.35 217.16h97.8l-48.9-107.58-48.9 107.58zm97.8 0h97.8l-48.9-107.58-48.9 107.58z"/><path class="cls-3" d="M1660.6 109.58h97.8L1709.5 2l-48.9 107.58z"/><path class="cls-2" d="M1758.4 109.58h97.8L1807.3 2l-48.9 107.58z"/><path class="cls-2" d="M1856.2 109.58h97.8L1905.1 2l-48.9 107.58zM3372.08 2H1709.5M-1.98 1185.32h97.8l-48.9-107.59-48.9 107.59zm97.8 0h97.8l-48.9-107.59-48.9 107.59zm97.8 0h97.8l-48.9-107.59-48.9 107.59zm97.8 0h97.8l-48.9-107.59-48.9 107.59zm97.8 0h97.8l-48.9-107.59-48.9 107.59z"/><path class="cls-2" d="M487.02 1185.32h97.8l-48.9-107.59-48.9 107.59zm97.8 0h97.8l-48.9-107.59-48.9 107.59zm97.8 0h97.79l-48.9-107.59-48.89 107.59zm97.79 0h97.8l-48.9-107.59-48.9 107.59zm97.8 0h97.8l-48.9-107.59-48.9 107.59zm97.8 0h97.8l-48.9-107.59-48.9 107.59zm97.8 0h97.8l-48.9-107.59-48.9 107.59zm97.8 0h97.8l-48.9-107.59-48.9 107.59zm97.8 0h97.8l-48.9-107.59-48.9 107.59zm97.8 0h97.8l-48.9-107.59-48.9 107.59zm97.8 0h97.8l-48.91-107.59-48.89 107.59zm97.8 0h97.79l-48.9-107.59-48.89 107.59zM-50.83 1077.73h97.8l-48.9-107.58-48.9 107.58z"/><path class="cls-2" d="M46.97 1077.73h97.8l-48.9-107.58-48.9 107.58zm97.8 0h97.8l-48.9-107.58-48.9 107.58zm97.8 0h97.8l-48.9-107.58-48.9 107.58zm97.8 0h97.8l-48.9-107.58-48.9 107.58zm97.8 0h97.8l-48.91-107.58-48.89 107.58zm97.8 0h97.79l-48.9-107.58-48.89 107.58zm97.79 0h97.8l-48.9-107.58-48.9 107.58zm97.8 0h97.8l-48.9-107.58-48.9 107.58zm97.8 0h97.8l-48.9-107.58-48.9 107.58zm97.8 0h97.8l-48.9-107.58-48.9 107.58zm97.8 0h97.8l-48.9-107.58-48.9 107.58zm97.8 0h97.8l-48.9-107.58-48.9 107.58zm97.8 0h97.8l-48.9-107.58-48.9 107.58zm97.8 0h97.79l-48.89-107.58-48.9 107.58zm97.79 0h97.8l-48.9-107.58-48.9 107.58zm97.8 0h97.8l-48.9-107.58-48.9 107.58zM-1.98 970.15h97.8l-48.9-107.57-48.9 107.57zm97.8 0h97.8l-48.9-107.57-48.9 107.57zm97.8 0h97.8l-48.9-107.57-48.9 107.57zm97.8 0h97.8l-48.9-107.57-48.9 107.57z"/><path class="cls-7" d="M389.22 970.15h97.8l-48.9-107.57-48.9 107.57z"/><path class="cls-2" d="M487.02 970.15h97.8l-48.9-107.57-48.9 107.57zm97.8 0h97.8l-48.9-107.57-48.9 107.57zm97.8 0h97.79l-48.9-107.57-48.89 107.57zm97.79 0h97.8l-48.9-107.57-48.9 107.57zm97.8 0h97.8l-48.9-107.57-48.9 107.57zm97.8 0h97.8l-48.9-107.57-48.9 107.57zm97.8 0h97.8l-48.9-107.57-48.9 107.57zm97.8 0h97.8l-48.9-107.57-48.9 107.57zm97.8 0h97.8l-48.9-107.57-48.9 107.57z"/><path class="cls-5" d="M1367.21 970.15h97.8l-48.9-107.57-48.9 107.57z"/><path class="cls-2" d="M1465.01 970.15h97.8l-48.91-107.57-48.89 107.57z"/><path class="cls-2" d="M1562.81 970.15h97.79l-48.9-107.57-48.89 107.57zm97.79 215.17h97.8l-48.9-107.59-48.9 107.59zm97.8 0h97.8l-48.9-107.59-48.9 107.59zm97.8 0h97.8l-48.9-107.59-48.9 107.59zm-244.45-107.59h97.8l-48.9-107.58-48.9 107.58zm97.8 0h97.8l-48.9-107.58-48.9 107.58z"/><path class="cls-2" d="M1807.35 1077.73h97.8l-48.9-107.58-48.9 107.58zm97.8 0h97.8l-48.9-107.58-48.9 107.58zM1660.6 970.15h97.8l-48.9-107.57-48.9 107.57zm97.8 0h97.8l-48.9-107.57-48.9 107.57zm97.8 0h97.8l-48.9-107.57-48.9 107.57z"/></svg>