<svg id="Capa_1" data-name="Capa 1" xmlns="http://www.w3.org/2000/svg" viewBox="0 0 496 496"><defs><style>.cls-1{fill:#6bcbb8;}.cls-2{fill:#3d7cc9;}.cls-3{fill:#3f3a34;}</style></defs><title>advertising</title><rect class="cls-1" x="80" y="144" width="272" height="192"/><rect class="cls-2" x="400" y="144" width="64" height="16"/><rect class="cls-2" x="368" y="144" width="16" height="16"/><rect class="cls-2" x="368" y="176" width="96" height="16"/><rect class="cls-2" x="368" y="208" width="96" height="16"/><rect class="cls-2" x="368" y="240" width="96" height="16"/><rect class="cls-2" x="368" y="272" width="64" height="16"/><rect class="cls-2" x="448" y="272" width="16" height="16"/><rect class="cls-2" x="408" y="304" width="16" height="16"/><rect class="cls-2" x="440" y="304" width="16" height="16"/><rect class="cls-2" x="376" y="304" width="16" height="16"/><rect class="cls-3" x="280" y="384" width="16" height="15.99"/><path class="cls-3" d="M16,64H280V96h16V40A40,40,0,0,0,256,0H40A40,40,0,0,0,0,40V400H16ZM40,16H256a24,24,0,0,1,24,24v8H16V40A24,24,0,0,1,40,16Z"/><path class="cls-3" d="M0,456a40,40,0,0,0,40,40H256a40,40,0,0,0,40-40V416H0Zm16-24H280v24a24,24,0,0,1-24,24H40a24,24,0,0,1-24-24Z"/><rect class="cls-3" x="120" y="448" width="56" height="16"/><path class="cls-3" d="M48,112V368H496V112ZM480,352H64V128H480Z"/><path class="cls-3" d="M208,288V232a40,40,0,0,0-80,0v56h16V256h48v32Zm-64-48v-8a24,24,0,0,1,48,0v8Z"/><path class="cls-3" d="M224,192v96h32a48,48,0,0,0,0-96Zm64,48a32,32,0,0,1-32,32H240V208h16A32,32,0,0,1,288,240Z"/><polygon class="cls-3" points="96 160 352 160 352 144 80 144 80 304 96 304 96 160"/><polygon class="cls-3" points="352 176 336 176 336 320 80 320 80 336 352 336 352 176"/></svg>