<svg id="Layer_1" data-name="Layer 1" xmlns="http://www.w3.org/2000/svg" viewBox="0 0 419.78 495.85"><defs><style>.cls-1{fill:#6bcbb8;}.cls-2{fill:#333;}</style></defs><title>idea</title><path class="cls-1" d="M355.9,200V152H337a102.47,102.47,0,0,0-12.64-30.53l13.35-13.35L303.79,74.18,290.44,87.53A102.29,102.29,0,0,0,259.91,74.9V56h-48V74.89a102.18,102.18,0,0,0-30.53,12.63L168,74.18,134.1,108.11l13.34,13.35A102.29,102.29,0,0,0,134.81,152H115.9v48h18.89a102.44,102.44,0,0,0,12.63,30.53l-13.34,13.35L168,277.81l13.37-13.38c1.75,1.06,3.59,2.1,5.55,3.15l7.52-14.12h9.44V231.22a64,64,0,1,1,64,0v22.2h9.58l7.61,14.08q2.82-1.53,5.32-3l13.37,13.37,33.94-33.93-13.34-13.35A102.55,102.55,0,0,0,337,200H355.9Z"/><path class="cls-2" d="M419.75,183.92C419.75,83.79,338.32,1.3,238.23,0L235.9,0c-86.42,0-162,61.56-180.14,147.18A179,179,0,0,0,54.08,212L0,308.74,59.9,326v97.83h80v72h16v-88h-80V314L23.8,299l47-84-.47-2.79a163.4,163.4,0,0,1,1.11-61.64C88.18,71.56,158.18,14.93,238,16c91.39,1.16,165.73,76.49,165.73,167.91l0,29.19a194.67,194.67,0,0,1-84.41,160.5L315.9,376V495.85h16V384.38a210.69,210.69,0,0,0,87.88-171.27Z"/><path class="cls-2" d="M307.9,175.85a72,72,0,1,0-112,59.8v12.61a20,20,0,0,0-6.63,36.47,19.87,19.87,0,0,0,18.63,27.12h56a19.89,19.89,0,0,0,18.64-27.12,20,20,0,0,0-6.64-36.47V235.65A72.25,72.25,0,0,0,307.9,175.85Zm-128,0a56,56,0,1,1,84,48.45l-4,2.31v21.24h-16V198.38a24,24,0,1,0-16,0v49.47h-16V226.61l-4-2.31A56.21,56.21,0,0,1,179.9,175.85Zm48,0a8,8,0,1,1,8,8A8,8,0,0,1,227.9,175.85Zm-28,88h72a4,4,0,0,1,0,8h-72a4,4,0,1,1,0-8Zm64,32h-56a4,4,0,1,1,0-8h56a4,4,0,0,1,0,8Z"/><rect class="cls-2" x="227.78" y="327.85" width="16" height="16"/><rect class="cls-2" x="227.78" y="359.85" width="16" height="16"/><rect class="cls-2" x="227.78" y="391.85" width="16" height="16"/><rect class="cls-2" x="227.78" y="423.85" width="16" height="16"/></svg>