<?xml version="1.0" standalone="no"?>
<!DOCTYPE svg PUBLIC "-//W3C//DTD SVG 20010904//EN"
 "http://www.w3.org/TR/2001/REC-SVG-20010904/DTD/svg10.dtd">
<svg version="1.0" xmlns="http://www.w3.org/2000/svg"
 width="260.000000pt" height="260.000000pt" viewBox="0 0 260.000000 260.000000"
 preserveAspectRatio="xMidYMid meet">
<metadata>
Created by potrace 1.11, written by Peter Selinger 2001-2013
</metadata>
<g transform="translate(0.000000,260.000000) scale(0.100000,-0.100000)"
fill="#000000" stroke="none">
<path d="M1435 1810 c-2 -4 -4 -155 -3 -337 l1 -330 128 -1 c91 0 129 3 130
11 0 7 0 31 -1 55 -1 34 2 42 17 43 100 4 202 78 245 178 18 43 25 118 14 167
-9 45 -50 116 -84 145 -71 63 -110 72 -285 74 -87 0 -160 -2 -162 -5z"/>
<path d="M2125 1667 c-38 -84 -83 -183 -101 -222 -103 -225 -134 -295 -134
-300 0 -3 138 -5 306 -5 241 0 305 3 301 13 -3 6 -40 89 -82 182 -42 94 -86
190 -97 215 -12 25 -39 83 -61 130 -22 47 -45 97 -51 112 -11 26 -15 20 -81
-125z"/>
<path d="M367 1736 c-19 -40 -38 -84 -42 -97 -4 -13 -11 -28 -15 -34 -8 -11
-210 -453 -210 -461 0 -2 137 -4 305 -4 168 0 305 3 305 6 0 4 -31 73 -132
294 -25 54 -67 147 -97 215 -35 77 -73 155 -76 155 -2 0 -19 -33 -38 -74z"/>
<path d="M1025 1715 c-25 -54 -45 -99 -45 -101 0 -1 -15 -35 -34 -76 -18 -40
-44 -95 -56 -123 -13 -27 -42 -91 -65 -141 -24 -50 -46 -100 -49 -112 l-7 -22
305 0 306 0 -9 23 c-5 12 -22 51 -39 87 -16 36 -42 92 -56 125 -15 33 -31 69
-36 80 -6 11 -43 93 -84 183 -41 90 -77 166 -80 169 -3 3 -26 -38 -51 -92z"/>
<path d="M1495 1051 c-11 -5 -28 -18 -38 -29 -18 -19 -18 -20 4 -35 19 -14 23
-14 42 4 25 23 50 24 66 5 17 -20 0 -49 -42 -74 -48 -30 -76 -64 -83 -100 -7
-34 -8 -34 56 -34 137 0 140 1 136 25 -3 22 -1 22 -100 26 -19 1 -19 2 -1 21
10 12 33 30 51 41 30 18 52 58 48 87 -1 6 -2 17 -3 22 0 6 -10 19 -21 30 -21
21 -77 26 -115 11z"/>
<path d="M1789 1045 c-15 -8 -30 -22 -34 -32 -32 -80 -27 -149 14 -196 37 -40
107 -44 146 -7 42 40 53 123 24 192 -21 52 -95 73 -150 43z m96 -68 c23 -56
-1 -147 -40 -147 -41 0 -65 97 -38 153 20 40 60 37 78 -6z"/>
<path d="M2078 1046 c-20 -7 -28 -17 -28 -34 0 -21 4 -24 25 -20 25 5 25 5 25
-73 0 -78 0 -79 -25 -79 -20 0 -25 -5 -25 -25 0 -14 6 -25 13 -26 139 -6 137
-6 137 23 0 16 -3 27 -7 27 -36 -6 -38 0 -38 108 l0 108 -25 0 c-14 1 -37 -4
-52 -9z"/>
<path d="M2317 1037 c-32 -25 -42 -75 -24 -114 14 -30 69 -48 107 -34 24 8 30
7 30 -5 0 -19 -36 -54 -56 -54 -8 0 -24 5 -34 10 -15 8 -21 6 -30 -9 -14 -27
-14 -28 18 -39 45 -15 94 -5 126 28 25 24 30 39 34 90 2 33 -1 72 -7 88 -25
60 -112 81 -164 39z m101 -39 c20 -20 14 -54 -12 -66 -36 -16 -72 14 -62 51 5
21 12 27 34 27 15 0 33 -5 40 -12z"/>
</g>
</svg>
