<svg xmlns="http://www.w3.org/2000/svg" viewBox="0 0 585 251"><path fill="#427bbf" d="M510.5 0L436 163.9h74.5V0z"/><path fill="#3a5dab" d="M510.5 0v163.9H585L510.5 0z"/><path fill="#6fc8b7" d="M12.2 137h124.6L74.5 0 12.2 137z"/><path fill="#427bbf" d="M0 163.9h149L136.8 137H12.2L0 163.9zM175 137h124.6L237.3 0 175 137z"/><path fill="#6fc8b7" d="M162.8 163.9h149L299.6 137H175l-12.2 26.9z"/><path fill="#427bbf" d="M324.9 0h62.7v137.03h-62.7z"/><path fill="#6fc8b7" d="M324.9 137h62.7v26.85h-62.7z"/><path d="M387.5 0v137a68.5 68.5 0 0 0 0-137zm-60.4 249.8v-1.4c0-9.3 2.3-18.4 19.3-29.3 10-6.4 13.9-8.8 13.9-15.3 0-4.8-3-7.9-8.4-7.9s-10.4 3.3-14.1 9.3l-10.1-7.1c5.6-8.5 13.2-14 24.6-14 13.9 0 21.8 7.3 21.8 18.7 0 7.2-1.9 13.5-14.3 21.4-9.3 5.9-15.5 10.7-15.8 14.5h30.5v11.1zm71.3-32.3c0-20.1 10-33.4 26.9-33.4s26.7 13.3 26.7 33.4-9.7 33.5-26.7 33.5-26.9-13.3-26.9-33.5zm39.6 0c0-14.7-4.6-22.1-12.7-22.1s-12.8 7.4-12.8 22.1 4.7 22.4 12.8 22.4 12.7-7.6 12.7-22.4zm37.8 32.3v-11.1h11.7v-40.6a26.5 26.5 0 0 1-11.5 3v-11.6c5-.2 9-1.5 11.8-4.2h13.4v53.4h10.2v11.1zm59.8-4.5l6.1-9.2a19.9 19.9 0 0 0 12.5 4c8.3 0 14.2-7.2 15.1-19.1-4.6 3.5-9.8 5.9-16.2 5.9-11.3 0-20.7-6.1-20.7-20.5s9.8-22.3 24.5-22.3 26.2 11.2 26.2 32.3c0 24.8-14.7 34.6-28.3 34.6-9.9 0-15.3-2.8-19.2-5.7zm33.7-34.3c-.7-10.8-5.3-15.9-13-15.9s-10.6 4.8-10.6 10.7 2.3 10.6 10.4 10.6a18.7 18.7 0 0 0 13.2-5.4z" fill="#3a5dab"/></svg>