<svg id="Layer_1" xmlns="http://www.w3.org/2000/svg" viewBox="0 0 855.6 632"><style>.st0,.st1{fill:none;stroke:#6bcbb8;stroke-width:.5;stroke-miterlimit:10}.st1{stroke:#68cbda}.st3{fill:#385cad}.st4{fill:#6bcbb8}.st5{fill:#3d7cc9}.st12,.st8{fill:none;stroke:#385cad;stroke-width:1.619}.st8{stroke-linejoin:bevel}.st12{stroke-miterlimit:10}</style><path class="st0" d="M285.5 213.3h95.2l-47.6-104.7-47.6 104.7zm190.3 0H571l-47.6-104.7-47.6 104.7zM0 422.6h95.2L47.6 317.9 0 422.6zm95.2 0h95.1l-47.5-104.7-47.6 104.7zm95.1 0h95.2l-47.6-104.7-47.6 104.7zM47.6 527.3h95.2L95.2 422.6 47.6 527.3z"/><path class="st0" d="M142.8 527.3h95.1l-47.6-104.7-47.5 104.7zM0 632h95.2L47.6 527.3 0 632zm95.2 0h95.1l-47.5-104.7L95.2 632zm142.7-314.1h95.2l-47.6-104.6-47.6 104.6zm95.2 0h95.2l-47.6-104.6-47.6 104.6z"/><path class="st1" d="M428.3 317.9h95.1l-47.6-104.6-47.5 104.6z"/><path class="st0" d="M523.4 108.6h95.2L571 3.9l-47.6 104.7z"/><path class="st1" d="M713.8 108.6h95.1L761.3 3.9l-47.5 104.7z"/><path class="st0" d="M808.9 108.6h95.2L856.5 3.9l-47.6 104.7zM571 213.3h95.2l-47.6-104.7L571 213.3z"/><path class="st1" d="M761.3 213.3h95.2l-47.6-104.7-47.6 104.7z"/><path class="st0" d="M761.3 422.6h95.2l-47.6-104.7-47.6 104.7zm-47.5-104.7h95.1l-47.6-104.6-47.5 104.6zm95.1 0h95.2l-47.6-104.6-47.6 104.6zM0 422.6h95.2L47.6 527.3 0 422.6zm95.2 0h95.1l-47.5 104.7-47.6-104.7z"/><path class="st1" d="M190.3 422.6h95.2l-47.6 104.7-47.6-104.7z"/><path class="st1" d="M285.5 422.6h95.2l-47.6 104.7-47.6-104.7z"/><path class="st0" d="M47.6 317.9h95.2L95.2 422.6 47.6 317.9zm95.2 0h95.1l-47.6 104.7-47.5-104.7zm95.1 0h95.2l-47.6 104.7-47.6-104.7z"/><path class="st1" d="M333.1 317.9h95.2l-47.6 104.7-47.6-104.7z"/><path class="st1" d="M428.3 317.9h95.1l-47.6 104.7-47.5-104.7z"/><path class="st0" d="M190.3 213.3h95.2l-47.6 104.6-47.6-104.6z"/><path class="st0" d="M285.5 213.3h95.2l-47.6 104.6-47.6-104.6z"/><path class="st1" d="M380.7 213.3h95.1l-47.5 104.6-47.6-104.6z"/><path class="st0" d="M47.6 527.3h95.2L95.2 632 47.6 527.3zm95.2 0h95.1L190.3 632l-47.5-104.7zm285.5-418.7h95.1l-47.6 104.7-47.5-104.7z"/><path class="st1" d="M761.3 422.6h95.2l-47.6 104.7-47.6-104.7zM523.4 317.9h95.2L571 422.6l-47.6-104.7z"/><path class="st0" d="M808.9 317.9h95.2l-47.6 104.7-47.6-104.7z"/><path class="st1" d="M571 213.3h95.2l-47.6 104.6L571 213.3z"/><path class="st0" d="M666.2 213.3h95.1l-47.5 104.6-47.6-104.6z"/><path class="st0" d="M761.3 213.3h95.2l-47.6 104.6-47.6-104.6zM571 3.9h95.2l-47.6 104.7L571 3.9zm190.3 0h95.2l-47.6 104.7L761.3 3.9z"/><path class="st1" d="M618.6 108.6h95.2l-47.6 104.7-47.6-104.7z"/><path class="st0" d="M523.4 108.6h95.2L571 213.3l-47.6-104.7zm190.4 0h95.1l-47.6 104.7-47.5-104.7z"/><path d="M380.7 213.3h95.1l-47.5-104.7-47.6 104.7z" fill="none" stroke="#6bcbb8" stroke-width="1.619" stroke-linejoin="bevel"/><path class="st3" d="M333.1 321.9l45.1 99.1H288l45.1-99.1zm0-4l-47.6 104.7h95.2l-47.6-104.7z"/><path class="st4" d="M380.7 422.6h95.1l-47.5-104.7-47.6 104.7z"/><path class="st5" d="M475.8 422.6H571l-47.6-104.7-47.6 104.7z"/><path class="st5" d="M428.3 527.3h95.1l-47.6-104.7-47.5 104.7z"/><path class="st4" d="M190.3 632h95.2l-47.6-104.7L190.3 632z"/><path class="st3" d="M285.5 632h95.2l-47.6-104.7L285.5 632z"/><path d="M380.7 632h95.1l-47.5-104.7L380.7 632z" fill="#c2d82e" stroke="#cdde00" stroke-miterlimit="10"/><path class="st5" d="M475.8 632H571l-47.6-104.7L475.8 632z"/><path class="st5" d="M428.3 527.3L475.8 632l47.6-104.7h-95.1z"/><path d="M428.3 527.3h95.1L475.8 632l-47.5-104.7z" fill="none" stroke="#fff" stroke-width="1.619" stroke-linejoin="bevel"/><path class="st8" d="M618.6 108.6h95.2L666.2 3.9l-47.6 104.7z"/><path d="M666.2 213.3h95.1l-47.5-104.7-47.6 104.7z" fill="#ee3e7b" stroke="#e6427a" stroke-miterlimit="10"/><path class="st3" d="M571 422.6h95.2l-47.6-104.7L571 422.6z"/><path class="st5" d="M523.4 527.3h95.2L571 422.6l-47.6 104.7z"/><path class="st3" d="M618.6 527.3h95.2l-47.6-104.7-47.6 104.7z"/><path class="st4" d="M713.8 527.3h95.1l-47.6-104.7-47.5 104.7z"/><path class="st5" d="M808.9 527.3h46.7V424.6l-46.7 102.7zM571 632h95.2l-47.6-104.7L571 632z"/><path class="st4" d="M666.2 632h95.1l-47.5-104.7L666.2 632z"/><path class="st4" d="M761.3 632h94.3v-1.9l-46.7-102.8L761.3 632z"/><path class="st3" d="M618.6 317.9h95.2l-47.6-104.6-47.6 104.6z"/><path class="st8" d="M523.4 317.9h95.2L571 213.3l-47.6 104.6z"/><path class="st4" d="M380.7 422.6h95.1l-47.5 104.7-47.6-104.7z"/><path class="st3" d="M333.1 525.7h95.2L380.7 421l-47.6 104.7z"/><path class="st5" d="M475.8 422.6H571l-47.6 104.7-47.6-104.7z"/><path class="st8" d="M475.8 213.3H571l-47.6 104.6-47.6-104.6z"/><path class="st4" d="M237.9 527.3L285.5 632l47.6-104.7h-95.2z"/><path class="st3" d="M333.1 527.3L380.7 632l47.6-104.7h-95.2z"/><path d="M237.9 527.3h95.2l-47.6-104.7-47.6 104.7z" fill="#68cbda"/><path d="M237.9 527.3h95.2l-47.6-104.7-47.6 104.7z" fill="#6bcbb8" stroke="#fff" stroke-width="1.619" stroke-linecap="square" stroke-linejoin="bevel"/><path class="st3" d="M571 422.6h95.2l-47.6 104.7L571 422.6z"/><path class="st12" d="M713.8 317.9h95.1l-47.6 104.7-47.5-104.7z"/><path class="st3" d="M666.2 422.6h95.1l-47.5-104.7-47.6 104.7zm0 0h95.1l-47.5 104.7-47.6-104.7zm-47.6-104.7h95.2l-47.6 104.7-47.6-104.7z"/><path class="st3" d="M618.6 527.3L666.2 632l47.6-104.7h-95.2z"/><path class="st5" d="M523.4 527.3L571 632l47.6-104.7h-95.2z"/><path class="st4" d="M713.8 527.3L761.3 632l47.6-104.7h-95.1z"/><path class="st5" d="M808.9 527.3l46.7 102.8V527.3h-46.7z"/><path class="st8" d="M666.2 3.9h95.1l-47.5 104.7L666.2 3.9z"/><path class="st12" d="M808.9 108.6h95.2l-47.6 104.7-47.6-104.7z"/></svg>